<?xml version="1.0" standalone="no"?>
<!DOCTYPE svg PUBLIC "-//W3C//DTD SVG 20010904//EN"
 "http://www.w3.org/TR/2001/REC-SVG-20010904/DTD/svg10.dtd">
<svg version="1.0" xmlns="http://www.w3.org/2000/svg"
 width="381.000000pt" height="381.000000pt" viewBox="0 0 381.000000 381.000000"
 preserveAspectRatio="xMidYMid meet">
<metadata>
Created by potrace 1.14, written by Peter Selinger 2001-2017
</metadata>
<g transform="translate(0.000000,381.000000) scale(0.100000,-0.100000)"
fill="#000000" stroke="none">
<path d="M470 2457 c-3 -3 -23 -8 -45 -11 -64 -10 -180 -72 -244 -132 -119
-110 -172 -229 -177 -394 -2 -93 1 -115 25 -187 66 -195 205 -324 398 -369
181 -42 363 13 497 149 113 114 156 213 161 372 4 113 -9 176 -55 270 -38 77
-92 144 -153 186 -26 19 -53 39 -60 44 -19 16 -88 44 -142 59 -49 13 -196 22
-205 13z"/>
<path d="M3018 2153 c-21 -5 -38 -59 -28 -88 5 -13 18 -21 40 -23 60 -6 78 4
85 49 4 22 3 45 -1 49 -11 10 -73 19 -96 13z"/>
<path d="M1334 2129 c-7 -12 -12 -39 -20 -108 -3 -31 -7 -63 -9 -71 -1 -8 -6
-40 -10 -70 -4 -30 -9 -64 -11 -75 -2 -11 -7 -45 -10 -75 -3 -30 -7 -62 -10
-71 -6 -22 24 -26 184 -24 85 1 136 6 155 15 81 39 88 217 11 236 l-26 7 31
13 c36 15 63 67 63 120 0 91 -32 107 -210 110 -73 0 -135 -3 -138 -7z m218
-103 c9 -14 -1 -57 -17 -74 -6 -7 -25 -13 -41 -14 -60 -1 -65 1 -60 25 3 12 7
33 8 47 2 20 10 26 38 30 39 6 61 2 72 -14z m-20 -190 c10 -16 1 -78 -15 -93
-15 -16 -76 -23 -99 -11 -9 4 -15 16 -13 25 2 10 7 35 10 55 4 28 11 37 28 40
34 5 81 -3 89 -16z"/>
<path d="M3195 2128 c-4 -12 -9 -51 -21 -143 -2 -22 -7 -55 -10 -74 -3 -19 -7
-53 -10 -75 -2 -23 -6 -50 -9 -61 -2 -11 -7 -46 -10 -77 l-7 -58 66 0 c62 0
66 2 67 23 2 80 13 109 40 105 16 -2 28 -20 46 -65 l25 -63 69 0 68 0 -47 93
-47 94 40 40 c37 37 83 122 67 124 -29 4 -109 5 -119 2 -6 -3 -14 -14 -17 -26
-6 -24 -68 -92 -98 -108 -16 -9 -17 -7 -8 17 11 27 40 208 40 244 0 18 -7 20
-60 20 -40 0 -62 -4 -65 -12z"/>
<path d="M1860 1997 c-25 -5 -57 -18 -71 -28 -66 -47 -91 -229 -40 -288 42
-48 157 -65 261 -38 40 11 45 15 46 42 2 51 -1 52 -90 48 -69 -4 -86 -2 -100
12 -25 25 -11 32 74 40 87 8 108 15 134 44 28 31 26 104 -4 136 -33 35 -124
49 -210 32z m108 -104 c4 -27 -15 -41 -66 -46 -23 -2 -42 -3 -42 -2 0 19 26
65 38 68 36 10 67 1 70 -20z"/>
<path d="M2224 1994 c-60 -15 -83 -44 -84 -105 0 -58 23 -81 111 -110 116 -39
103 -59 -37 -59 l-91 0 -6 -37 c-4 -20 -4 -39 -1 -42 3 -3 62 -5 132 -6 105 0
133 3 155 17 35 24 49 53 49 101 -1 55 -28 79 -117 107 -88 28 -100 50 -27 51
26 0 71 0 100 -1 28 -1 52 0 52 2 1 2 3 20 6 40 l5 37 -43 5 c-92 12 -159 12
-204 0z"/>
<path d="M2535 1940 c-10 -88 -15 -124 -20 -145 -2 -11 -7 -47 -11 -80 -3 -33
-8 -63 -11 -67 -2 -5 25 -8 62 -8 74 0 71 -3 79 85 11 118 18 138 59 157 38
18 71 7 63 -20 -2 -9 -8 -44 -11 -77 -4 -33 -10 -79 -15 -103 l-8 -43 67 3 66
3 12 85 c27 203 28 219 2 246 -18 19 -32 24 -71 24 -48 0 -70 -8 -117 -42 -31
-23 -41 -23 -36 2 5 25 -9 34 -61 35 l-42 1 -7 -56z"/>
<path d="M2975 1990 c-3 -5 -7 -33 -20 -135 -3 -22 -7 -53 -10 -70 -2 -16 -7
-52 -11 -80 -3 -27 -8 -54 -11 -58 -3 -4 26 -7 63 -5 74 3 67 -5 79 93 3 28 8
57 10 65 5 20 17 128 19 164 1 30 1 30 -57 31 -32 0 -60 -2 -62 -5z"/>
<path d="M3677 1789 c-56 -33 -53 -125 4 -155 90 -46 171 65 100 137 -31 30
-71 37 -104 18z"/>
</g>
</svg>
